<?xml version="1.0" standalone="no"?><svg xmlns="http://www.w3.org/2000/svg" viewBox="0 0 1440 320"><path fill="#5B2D98" fill-opacity="1" d="M0,32L17.1,58.7C34.3,85,69,139,103,160C137.1,181,171,171,206,149.3C240,128,274,96,309,74.7C342.9,53,377,43,411,74.7C445.7,107,480,181,514,202.7C548.6,224,583,192,617,197.3C651.4,203,686,245,720,256C754.3,267,789,245,823,224C857.1,203,891,181,926,192C960,203,994,245,1029,245.3C1062.9,245,1097,203,1131,208C1165.7,213,1200,267,1234,256C1268.6,245,1303,171,1337,160C1371.4,149,1406,203,1423,229.3L1440,256L1440,0L1422.9,0C1405.7,0,1371,0,1337,0C1302.9,0,1269,0,1234,0C1200,0,1166,0,1131,0C1097.1,0,1063,0,1029,0C994.3,0,960,0,926,0C891.4,0,857,0,823,0C788.6,0,754,0,720,0C685.7,0,651,0,617,0C582.9,0,549,0,514,0C480,0,446,0,411,0C377.1,0,343,0,309,0C274.3,0,240,0,206,0C171.4,0,137,0,103,0C68.6,0,34,0,17,0L0,0Z"></path></svg>